<svg width="24" height="24" viewBox="0 0 24 24" fill="none" xmlns="http://www.w3.org/2000/svg">
<path d="M22.7104 4.71019C22.6174 4.80391 22.5068 4.87831 22.385 4.92908C22.2631 4.97985 22.1324 5.00598 22.0004 5.00598C21.8684 5.00598 21.7377 4.97985 21.6158 4.92908C21.4939 4.87831 21.3833 4.80391 21.2904 4.71019L21.0004 4.41019L14.9004 10.5202L12.0004 21.2602C11.9418 21.4783 11.811 21.6702 11.6295 21.8046C11.4479 21.939 11.2261 22.0079 11.0004 22.0002C10.7907 22.0007 10.5862 21.9354 10.4158 21.8133C10.2453 21.6913 10.1175 21.5188 10.0504 21.3202L8.21038 15.7902L2.68038 14.0002C2.4734 13.9306 2.29489 13.7952 2.1721 13.6146C2.04931 13.434 1.989 13.2183 2.00038 13.0002C1.99265 12.7744 2.06158 12.5527 2.19596 12.3711C2.33033 12.1895 2.52222 12.0588 2.74038 12.0002L13.4804 9.10019L19.5904 3.00019L19.2904 2.71019C19.1021 2.52188 18.9963 2.26649 18.9963 2.00019C18.9963 1.73388 19.1021 1.47849 19.2904 1.29019C19.4787 1.10188 19.7341 0.996094 20.0004 0.996094C20.2667 0.996094 20.5221 1.10188 20.7104 1.29019L22.7104 3.29019C22.8041 3.38315 22.8785 3.49375 22.9293 3.61561C22.98 3.73747 23.0062 3.86817 23.0062 4.00019C23.0062 4.1322 22.98 4.2629 22.9293 4.38476C22.8785 4.50662 22.8041 4.61722 22.7104 4.71019Z" fill="#666666"/>
</svg>
