<svg width="24" height="23" viewBox="0 0 24 23" fill="none" xmlns="http://www.w3.org/2000/svg">
<path d="M12.2069 0C6.01499 0 0.976562 5.0344 0.976562 11.2238C0.976562 17.4132 6.01499 22.4476 12.2069 22.4476C18.3988 22.4476 23.4373 17.4132 23.4373 11.2238C23.4373 5.0344 18.3988 0 12.2069 0ZM12.2069 21.7C6.4275 21.7 1.72595 17.0002 1.72595 11.2238C1.72595 5.4474 6.4275 0.7476 12.2069 0.7476C17.9863 0.7476 22.6879 5.4474 22.6879 11.2238C22.6879 17.0002 17.9863 21.7 12.2069 21.7Z" fill="white"/>
<path d="M14.658 4.92366H12.7894C10.4096 4.89986 10.1056 6.37196 10.1056 7.96516V9.12366H9.05507C9.00759 9.11733 8.95929 9.12201 8.91391 9.13736C8.86853 9.15271 8.82731 9.1783 8.79343 9.21216C8.75956 9.24601 8.73395 9.28722 8.71859 9.33257C8.70324 9.37793 8.69855 9.42621 8.70489 9.47366V11.5737C8.69855 11.6211 8.70324 11.6694 8.71859 11.7148C8.73395 11.7601 8.75956 11.8013 8.79343 11.8352C8.82731 11.869 8.86853 11.8946 8.91391 11.91C8.95929 11.9253 9.00759 11.93 9.05507 11.9237H10.1056V17.1737C10.0998 17.2212 10.1049 17.2695 10.1206 17.3147C10.1362 17.36 10.1621 17.4011 10.1961 17.4349C10.23 17.4686 10.2713 17.4942 10.3167 17.5096C10.3621 17.525 10.4104 17.5298 10.4579 17.5237H12.5975C12.8041 17.5475 12.9715 17.3802 12.9057 17.1737L12.9071 11.9237H14.658C14.7055 11.93 14.7538 11.9253 14.7992 11.91C14.8445 11.8946 14.8858 11.869 14.9196 11.8352C14.9535 11.8013 14.9791 11.7601 14.9945 11.7148C15.0098 11.6694 15.0145 11.6211 15.0082 11.5737V9.47366C15.0145 9.42621 15.0098 9.37793 14.9945 9.33257C14.9791 9.28722 14.9535 9.24601 14.9196 9.21216C14.8858 9.1783 14.8445 9.15271 14.7992 9.13736C14.7538 9.12201 14.7055 9.11733 14.658 9.12366H12.905L12.9071 8.07366C12.975 7.62636 12.975 7.69916 13.3903 7.72366H14.6433C14.7406 7.70196 14.8443 7.71386 14.9171 7.64316C14.99 7.57246 15.032 7.47586 15.0075 7.37366V5.27366C15.0139 5.22624 15.0094 5.17797 14.9941 5.13261C14.9788 5.08725 14.9533 5.04602 14.9195 5.01215C14.8856 4.97828 14.8444 4.95267 14.7991 4.93732C14.7537 4.92197 14.7055 4.91729 14.658 4.92366ZM14.2833 6.98446L13.405 6.95086C12.3174 6.95086 12.2263 7.54096 12.2263 8.14506L12.2235 9.47226C12.2234 9.52141 12.233 9.57009 12.2518 9.61553C12.2705 9.66096 12.2981 9.70225 12.3328 9.73703C12.3676 9.77182 12.4088 9.79942 12.4542 9.81824C12.4997 9.83707 12.5484 9.84677 12.5975 9.84677H14.3078V11.1992H12.5989C12.4997 11.1992 12.4045 11.2385 12.3342 11.3086C12.264 11.3787 12.2244 11.4738 12.2242 11.573L12.2235 16.8237H10.806V11.5737C10.806 11.3672 10.6652 11.1999 10.4579 11.1999H9.40526V9.84747H10.4579C10.507 9.84754 10.5557 9.83793 10.6011 9.8192C10.6466 9.80046 10.6879 9.77296 10.7226 9.73827C10.7927 9.66756 10.8053 9.57236 10.8053 9.47296V7.96446C10.8053 6.39506 11.1226 5.64746 12.7887 5.64746H14.2826V6.98446H14.2833Z" fill="white"/>
</svg>
