<svg width="23" height="23" viewBox="0 0 23 23" fill="none" xmlns="http://www.w3.org/2000/svg">
<path d="M11.3631 6.06667C10.3472 6.06667 9.35425 6.36773 8.50964 6.93179C7.66503 7.49585 7.00674 8.29756 6.618 9.23556C6.22927 10.1735 6.12756 11.2057 6.32574 12.2015C6.52391 13.1972 7.01307 14.1119 7.73135 14.8298C8.44963 15.5477 9.36478 16.0366 10.3611 16.2347C11.3574 16.4328 12.39 16.3311 13.3285 15.9426C14.267 15.554 15.0691 14.8961 15.6335 14.0519C16.1978 13.2078 16.4991 12.2153 16.4991 11.2C16.4975 9.83903 15.9559 8.53424 14.993 7.57189C14.0302 6.60954 12.7247 6.06821 11.3631 6.06667ZM11.3631 15.4C10.5319 15.4 9.71949 15.1537 9.02844 14.6922C8.3374 14.2307 7.79879 13.5747 7.48074 12.8073C7.16269 12.0398 7.07947 11.1953 7.24161 10.3806C7.40375 9.5659 7.80397 8.81753 8.39166 8.23015C8.97935 7.64277 9.7281 7.24276 10.5432 7.0807C11.3584 6.91864 12.2033 7.00182 12.9712 7.3197C13.739 7.63759 14.3953 8.17592 14.857 8.8666C15.3188 9.55729 15.5652 10.3693 15.5652 11.2C15.564 12.3135 15.1209 13.3811 14.3331 14.1685C13.5453 14.9559 12.4772 15.3988 11.3631 15.4ZM16.4991 0H6.22705C4.61779 0.00182184 3.07497 0.641572 1.93705 1.7789C0.799132 2.91622 0.159049 4.45824 0.157227 6.06667V16.3333C0.159049 17.9417 0.799132 19.4838 1.93705 20.6211C3.07497 21.7584 4.61779 22.3982 6.22705 22.4H16.4991C18.1083 22.3982 19.6511 21.7584 20.7891 20.6211C21.927 19.4838 22.5671 17.9417 22.5689 16.3333V6.06667C22.5671 4.45824 21.927 2.91622 20.7891 1.7789C19.6511 0.641572 18.1083 0.00182184 16.4991 0ZM21.6351 16.3333C21.6335 17.6943 21.0919 18.9991 20.1291 19.9614C19.1662 20.9238 17.8607 21.4651 16.4991 21.4667H6.22705C4.86537 21.4651 3.5599 20.9238 2.59705 19.9614C1.6342 18.9991 1.09259 17.6943 1.09105 16.3333V6.06667C1.09259 4.70569 1.6342 3.40091 2.59705 2.43856C3.5599 1.4762 4.86537 0.934877 6.22705 0.933333H16.4991C17.8607 0.934877 19.1662 1.4762 20.1291 2.43856C21.0919 3.40091 21.6335 4.70569 21.6351 6.06667V16.3333ZM18.3667 5.13333C18.3667 5.31793 18.3119 5.49838 18.2093 5.65186C18.1067 5.80535 17.9609 5.92498 17.7902 5.99562C17.6196 6.06626 17.4318 6.08474 17.2507 6.04873C17.0696 6.01272 16.9032 5.92383 16.7726 5.7933C16.642 5.66277 16.553 5.49647 16.517 5.31542C16.481 5.13437 16.4995 4.9467 16.5701 4.77616C16.6408 4.60562 16.7605 4.45985 16.9141 4.35729C17.0676 4.25474 17.2482 4.2 17.4329 4.2C17.6804 4.20031 17.9178 4.29874 18.0928 4.47371C18.2679 4.64867 18.3664 4.88589 18.3667 5.13333Z" fill="white"/>
</svg>
