<svg width="24" height="24" viewBox="0 0 24 24" fill="none" xmlns="http://www.w3.org/2000/svg">
<path d="M20.0625 6.8999H3.9375C3 6.8999 2.25 7.6499 2.25 8.5874V15.4499C2.25 16.3874 3 17.1374 3.9375 17.1374H20.0625C21 17.1374 21.75 16.3874 21.75 15.4499V13.7249C21.75 13.5374 21.6 13.3499 21.4125 13.3499C20.7 13.2749 20.2125 12.7124 20.2125 12.0374C20.2125 11.3624 20.7375 10.7999 21.4125 10.7249C21.6 10.7249 21.75 10.5374 21.75 10.3499V8.6249C21.75 7.6499 21 6.8999 20.0625 6.8999ZM21 10.0124C20.1 10.2374 19.425 11.0624 19.425 11.9999C19.425 12.9374 20.0625 13.7624 21 13.9874V15.4124C21 15.9374 20.5875 16.3499 20.0625 16.3499H16.95V15.4124C16.95 15.1874 16.8 15.0374 16.575 15.0374C16.35 15.0374 16.2 15.1874 16.2 15.4124V16.3499H3.9375C3.4125 16.3499 3 15.9374 3 15.4124V8.5874C3 8.0624 3.4125 7.6499 3.9375 7.6499H16.2V8.5874C16.2 8.8124 16.35 8.9624 16.575 8.9624C16.8 8.9624 16.95 8.8124 16.95 8.5874V7.6499H20.0625C20.5875 7.6499 21 8.0624 21 8.5874V10.0124Z" fill="#666666"/>
<path d="M16.5752 10.5C16.3502 10.5 16.2002 10.65 16.2002 10.875V13.125C16.2002 13.35 16.3502 13.5 16.5752 13.5C16.8002 13.5 16.9502 13.35 16.9502 13.125V10.875C16.9502 10.65 16.7627 10.5 16.5752 10.5Z" fill="#666666"/>
</svg>
