<svg width="24" height="23" viewBox="0 0 24 23" fill="none" xmlns="http://www.w3.org/2000/svg">
<g clip-path="url(#clip0_63402_439)">
<path d="M12.0018 -0.0234375C5.8099 -0.0234375 0.771484 5.01096 0.771484 11.2004C0.771484 17.3898 5.8099 22.4242 12.0018 22.4242C18.1937 22.4242 23.2322 17.3898 23.2322 11.2004C23.2322 5.01096 18.1937 -0.0234375 12.0018 -0.0234375ZM12.0018 21.6766C6.22242 21.6766 1.52087 16.9768 1.52087 11.2004C1.52087 5.42396 6.22242 0.724162 12.0018 0.724162C17.7812 0.724162 22.4828 5.42396 22.4828 11.2004C22.4828 16.9768 17.7812 21.6766 12.0018 21.6766Z" fill="white"/>
<path d="M18.161 7.73295C18.2387 7.58923 18.3027 7.43853 18.3522 7.28285C18.3752 7.21064 18.3756 7.13318 18.3536 7.06069C18.3315 6.98821 18.288 6.92412 18.2287 6.87688C18.1695 6.82963 18.0973 6.80146 18.0217 6.79608C17.9461 6.79071 17.8706 6.80837 17.8053 6.84675C17.4464 7.05984 17.0579 7.2186 16.6525 7.31785C16.1603 6.87389 15.5211 6.62778 14.8581 6.62695C14.4979 6.62723 14.1415 6.7002 13.8102 6.84148C13.4789 6.98276 13.1796 7.18944 12.9302 7.44914C12.6807 7.70884 12.4863 8.01621 12.3586 8.35282C12.2309 8.68943 12.1725 9.04834 12.1869 9.40805C10.6118 9.20987 9.17351 8.41325 8.17035 7.18345C8.13192 7.13686 8.0828 7.10023 8.02717 7.07667C7.97154 7.05312 7.91104 7.04333 7.85082 7.04814C7.79059 7.05295 7.73242 7.07222 7.68124 7.1043C7.63006 7.13639 7.58738 7.18035 7.55683 7.23245C7.32713 7.6265 7.20228 8.0728 7.19419 8.52878C7.18609 8.98476 7.29503 9.43521 7.51061 9.83715C7.45774 9.84607 7.40694 9.86457 7.36073 9.89175C7.3041 9.92784 7.25748 9.97761 7.22517 10.0365C7.19285 10.0953 7.17589 10.1613 7.17584 10.2285C7.17584 11.023 7.52952 11.7524 8.09962 12.248L8.0751 12.2725C8.03206 12.3211 8.00245 12.3801 7.98919 12.4437C7.97593 12.5073 7.97947 12.5733 7.99946 12.6351C8.11834 13.0057 8.31684 13.3459 8.58105 13.6319C8.84527 13.9179 9.16882 14.1427 9.52906 14.2906C8.78919 14.6513 7.96119 14.792 7.14362 14.6959C7.05958 14.6873 6.97507 14.7068 6.90334 14.7514C6.8316 14.796 6.77669 14.8631 6.74721 14.9423C6.7189 15.022 6.71837 15.1089 6.74571 15.1889C6.77304 15.269 6.82663 15.3375 6.89779 15.3833C8.00928 16.0962 9.30232 16.475 10.623 16.4746C14.9513 16.4746 17.5384 12.9606 17.5384 9.56345L17.5377 9.44865C17.9572 9.12134 18.3216 8.72905 18.617 8.28665C18.6617 8.21977 18.6837 8.14027 18.6797 8.05992C18.6757 7.97957 18.646 7.90264 18.5948 7.84052C18.5437 7.77841 18.4739 7.7344 18.3957 7.71503C18.3176 7.69565 18.2353 7.70194 18.161 7.73295ZM16.9389 8.96145C16.8881 8.99798 16.8472 9.04665 16.8201 9.10302C16.7929 9.15939 16.7803 9.22166 16.7834 9.28415C16.7876 9.37655 16.7897 9.47035 16.7897 9.56275C16.7897 12.5924 14.4834 15.7263 10.6237 15.7263C9.93534 15.7266 9.25181 15.6111 8.60178 15.3847C9.3803 15.2355 10.1116 14.9019 10.7344 14.4117C10.795 14.3639 10.8394 14.2986 10.8615 14.2246C10.8835 14.1507 10.8822 14.0717 10.8577 13.9986C10.8331 13.9254 10.7866 13.8616 10.7244 13.8159C10.6622 13.7702 10.5874 13.7448 10.5103 13.7432C10.2083 13.7374 9.91189 13.6608 9.64498 13.5195C9.37807 13.3782 9.14812 13.1762 8.97367 12.9298C9.15086 12.9179 9.32455 12.8885 9.49334 12.843C9.57503 12.8211 9.6469 12.7722 9.69722 12.7043C9.74754 12.6364 9.77334 12.5534 9.77042 12.4689C9.76749 12.3845 9.73601 12.3035 9.68111 12.2392C9.62621 12.1749 9.55113 12.1311 9.46813 12.115C9.12707 12.0456 8.81128 11.8849 8.55456 11.65C8.29784 11.4151 8.10984 11.1149 8.01067 10.7815C8.19697 10.8284 8.38817 10.8557 8.57937 10.862C8.74395 10.8613 8.89663 10.7605 8.94776 10.6023C8.99888 10.4441 8.93865 10.2698 8.79928 10.1774C8.46974 9.95791 8.21601 9.64214 8.07273 9.27318C7.92946 8.90421 7.90362 8.50004 7.99876 8.11585C9.21532 9.36347 10.858 10.1064 12.5988 10.1963C12.722 10.197 12.8299 10.1529 12.9048 10.0626C12.9798 9.97225 13.0085 9.85255 12.9819 9.73775C12.8861 9.32545 12.9289 8.89309 13.1038 8.50758C13.2786 8.12207 13.5757 7.8049 13.9491 7.60516C14.3224 7.40542 14.7513 7.33425 15.1692 7.40265C15.5871 7.47105 15.9708 7.67522 16.261 7.98355C16.3044 8.02992 16.359 8.06447 16.4195 8.08394C16.4801 8.10341 16.5446 8.10717 16.6069 8.09485C16.7225 8.07175 16.8367 8.04515 16.9494 8.01435C16.8986 8.05239 16.8457 8.08767 16.7911 8.12005C16.7185 8.16452 16.6632 8.23238 16.6343 8.31247C16.6055 8.39256 16.6048 8.48008 16.6323 8.56062C16.6599 8.64116 16.7141 8.70992 16.786 8.75555C16.8579 8.80118 16.9432 8.82097 17.0279 8.81165L17.1553 8.79555C17.0851 8.85334 17.0129 8.90867 16.9389 8.96145Z" fill="white"/>
</g>
<defs>
<clipPath id="clip0_63402_439">
<rect width="22.4117" height="22.4" fill="white" transform="translate(0.795898)"/>
</clipPath>
</defs>
</svg>
